<svg id="Capa_2" data-name="Capa 2" xmlns="http://www.w3.org/2000/svg" viewBox="0 0 265.79 155.88"><defs><style>.cls-1{fill:#c71617;}</style></defs><title>logo-cine-itq</title><path class="cls-1" d="M118.76,55.34a4.86,4.86,0,0,0-5.21-4.81c-3.38,0-5.42,2.89-5.42,8.55,0,4.12.9,8,5.78,8,3.1,0,4.56-2.16,4.93-5h9.25c-.86,7.57-6.28,12.13-14,12.13-9.7,0-15.56-5.94-15.56-15.47s6.43-15.4,14.62-15.4c9,0,14,4.44,14.74,12Z"/><path class="cls-1" d="M131.83,43.36h8.47v6h-8.47Zm0,30.1V52.12h8.47V73.46Z"/><path class="cls-1" d="M144.82,52.12h7.74v3.34c1.91-2.57,4-4,7.21-4,5.62,0,8.26,3.3,8.26,9.16V73.46h-8.47V62.18c0-2.12-.57-4-3-4-2.61,0-3.3,1.67-3.3,4.4V73.46h-8.47Z"/><path class="cls-1" d="M179.76,64.7A4.11,4.11,0,0,0,184,68.9,3.38,3.38,0,0,0,187.13,67h8.1c-1.46,5.29-6.84,7-11.81,7-6.84,0-12.13-3.91-12.13-11.08,0-7,5.25-11.48,12.09-11.48,7.91,0,12.67,5.46,12.55,13.19Zm7.7-4.31a3.84,3.84,0,0,0-3.75-3.71c-2.53,0-4,1.43-4,3.71Z"/><path class="cls-1" d="M143.48,91.62a4.89,4.89,0,0,0-5.24-4.83c-3.4,0-5.45,2.91-5.45,8.6,0,4.14.9,8,5.82,8,3.11,0,4.58-2.17,4.95-5h9.3c-.86,7.63-6.31,12.22-14.09,12.22-9.75,0-15.65-6-15.65-15.57s6.47-15.49,14.71-15.49c9,0,14,4.46,14.83,12Z"/><path class="cls-1" d="M163.61,101.69a3.92,3.92,0,0,0,4,4,3.2,3.2,0,0,0,3-1.79h7.72c-1.39,5-6.51,6.71-11.25,6.71-6.51,0-11.55-3.72-11.55-10.55,0-6.67,5-10.93,11.52-10.93,7.52,0,12.06,5.19,11.94,12.56Zm7.33-4.11a3.65,3.65,0,0,0-3.56-3.53c-2.41,0-3.77,1.36-3.77,3.53Z"/><path class="cls-1" d="M181.88,89.71h7.37v3.18c1.83-2.44,3.8-3.76,6.87-3.76,5.35,0,7.06,3.14,7.06,8.72V110h-8.07V99.29c0-1.87-.33-3.8-2.44-3.8S190,97.08,190,99.68V110h-8.07Z"/><path class="cls-1" d="M220.79,110c-10,.58-11.84-.89-11.87-7.17V96h-2.87v-6h3V86.17L217,82v8h3.87v6H217v5.72c0,1.86.27,2.52,2.52,2.52h1.28Z"/><path class="cls-1" d="M230.54,101.69a3.92,3.92,0,0,0,4,4,3.2,3.2,0,0,0,3-1.79h7.72c-1.39,5-6.51,6.71-11.25,6.71-6.51,0-11.55-3.72-11.55-10.55,0-6.67,5-10.93,11.52-10.93,7.52,0,12.06,5.19,11.94,12.56Zm7.33-4.11a3.65,3.65,0,0,0-3.56-3.53c-2.41,0-3.77,1.36-3.77,3.53Z"/><path class="cls-1" d="M250.12,89.71h7.33v4.11h.08c1.13-3.18,3.1-4.32,6.25-4.32l1.05,0a1,1,0,0,1,.95,1.11l-1,5.72a11.83,11.83,0,0,0-1.66-.23c-3.3,0-5,1.55-5,5.93v8h-8.07Z"/><path class="cls-1" d="M72.81,79.7A73.91,73.91,0,0,1,113,14.11a74.51,74.51,0,1,0-2.66,129.74A73.86,73.86,0,0,1,72.81,79.7ZM76.14,119H61.69a71.84,71.84,0,0,1-5.82-10H70.74A72.57,72.57,0,0,0,76.14,119ZM65.2,69a74.06,74.06,0,0,0-.73,10.38c0,.2,0,.39,0,.59H48.92c0-.55,0-1.11,0-1.67a71.45,71.45,0,0,1,.6-9.3Zm-13-12A69.54,69.54,0,0,1,55.64,48H71.5A72.22,72.22,0,0,0,68,56.91Zm13.07,33A71.56,71.56,0,0,0,67.15,99H52a70,70,0,0,1-2.12-9.07ZM90.14,13.08h15.8A75,75,0,0,0,93.3,21H77.43A75.18,75.18,0,0,1,90.14,13.08ZM85.44,28a74.48,74.48,0,0,0-8.89,11H60.66a73,73,0,0,1,8.88-11ZM47.83,13.08h15A75,75,0,0,0,50.18,21h-15A74.92,74.92,0,0,1,47.83,13.08ZM27.26,28h15a73.73,73.73,0,0,0-8.89,11h-15A73.73,73.73,0,0,1,27.26,28ZM13.35,48h15a71,71,0,0,0-3.48,8.94h-15A71,71,0,0,1,13.35,48ZM6.61,78.25A70.68,70.68,0,0,1,7.21,69h15a70.68,70.68,0,0,0-.6,9.25c0,.53,0,1.06,0,1.59h-15C6.62,79.31,6.61,78.78,6.61,78.25ZM7.58,90h15a71.4,71.4,0,0,0,2.11,9H9.7A69.74,69.74,0,0,1,7.58,90Zm11.73,28.91a71.76,71.76,0,0,1-5.65-9.72h15a71.82,71.82,0,0,0,5.66,9.72Zm5.46,7h15A74.14,74.14,0,0,0,48.26,134h-15A73.15,73.15,0,0,1,24.77,125.88ZM51.16,145a75.22,75.22,0,0,1-11.3-6.09h15A75.43,75.43,0,0,0,66.23,145Zm15.92-19.09H81.14A74.8,74.8,0,0,0,88.91,134H75.55A71.72,71.72,0,0,1,67.08,125.88ZM93.51,145a76.42,76.42,0,0,1-11.32-6.09H94.9a76.14,76.14,0,0,0,9.84,6.09Z"/><path class="cls-1" d="M139.69,39h78.49C207.56,19.08,189.07,4.63,167.28.62c-1.35-.25-2.71-.46-4.09-.62h-85V.9C105,1.36,127.6,15,139.69,39Zm7.85-3A78,78,0,0,0,141,27h15.65a78,78,0,0,1,6.58,9Zm62.86,0H194a77.6,77.6,0,0,0-6.53-9h16.34A78,78,0,0,1,210.4,36ZM197,19.93H180.7a77.15,77.15,0,0,0-8.54-6.85H188.4A79,79,0,0,1,197,19.93Zm-29.47-17A77.14,77.14,0,0,1,177.89,7H161.75A77.35,77.35,0,0,0,151.6,2.92Zm-62.87,0h15.66A77.68,77.68,0,0,1,130.68,7H115A77.14,77.14,0,0,0,104.68,2.92Zm36.51,10.16a77.92,77.92,0,0,1,8.61,6.85H134.15a79,79,0,0,0-8.62-6.85Z"/><path class="cls-1" d="M139.41,116.75a72.73,72.73,0,0,1-24.59,26.88c-2.09,1.35-4.25,2.61-6.47,3.75a75.52,75.52,0,0,1-30.19,8.35v.15h86.37c.92-.13,1.84-.28,2.75-.45,21.9-4,40.46-18.6,51.05-38.68ZM147.9,119h15.65a77.43,77.43,0,0,1-6.48,9H141.41A78.71,78.71,0,0,0,147.9,119Zm-28.39,33.86H103.86a77.57,77.57,0,0,0,10.37-4h15.66A75.86,75.86,0,0,1,119.51,152.89ZM141.86,142H126.19a78.26,78.26,0,0,0,7.61-6.08h15.66A78.14,78.14,0,0,1,141.86,142Zm24.86,10.89h-17.1a78.61,78.61,0,0,0,10.59-4H177.1A75.86,75.86,0,0,1,166.72,152.89ZM189.07,142H172.31a78.9,78.9,0,0,0,7.66-6.08h16.71A79.49,79.49,0,0,1,189.07,142Zm15.21-14H187.63a77.83,77.83,0,0,0,6.53-9h16.6A77.43,77.43,0,0,1,204.28,128Z"/></svg>